<?xml version="1.0" encoding="iso-8859-1"?>
<!-- Generator: Adobe Illustrator 19.0.0, SVG Export Plug-In . SVG Version: 6.00 Build 0)  -->
<svg xmlns="http://www.w3.org/2000/svg" xmlns:xlink="http://www.w3.org/1999/xlink" version="1.1" id="Capa_1" x="0px" y="0px" viewBox="0 0 511.999 511.999" style="enable-background:new 0 0 511.999 511.999;" xml:space="preserve" width="512px" height="512px">
<g>
	<g>
		<path d="M186.778,195.794l18.512-34.472c3.925-7.31,1.182-16.417-6.127-20.342c-7.311-3.926-16.417-1.183-20.342,6.127    l-18.382,34.229c-5.4-1.473-11.073-2.274-16.934-2.274c-5.892,0-11.594,0.81-17.02,2.298l-18.395-34.253    c-3.925-7.309-13.033-10.053-20.342-6.127c-7.309,3.925-10.053,13.032-6.127,20.342l18.545,34.532    c-12.954,11.795-21.098,28.787-21.098,47.645c0,35.531,28.906,64.438,64.437,64.438s64.437-28.906,64.437-64.438    C207.944,224.609,199.772,207.591,186.778,195.794z" fill="#FFFFFF"/>
	</g>
</g>
<g>
	<g>
		<path d="M272.941,256.493c-9.618-11.691-22.769-20.74-37.784-26.15c-4.105-1.537-7.713-3.4-9.979-0.462    c-1.748,2.266-1.516,8.515-1.516,8.515c-0.06,4.163-0.208,8.607-0.452,13.349c-1.412,27.69-18.066,49.802-39.037,62.461    c-9.544,5.768-19.979,9.574-30.284,11.056c-3.225,0.471-6.439,0.711-9.614,0.711c-3.185,0-6.379-0.17-9.574-0.511    c-11.397-1.222-22.723-4.657-32.898-10.495c-18.877-10.836-33.829-29.924-38.015-58.535c-1.113-7.599-2.042-14.645-2.797-21.174    c-0.42-3.626-4.132-5.854-7.555-4.585c-14.676,5.445-27.701,14.346-37.498,25.758c-12.959,15.102-18.397,32.597-14.902,48    c3.505,15.422,16.274,28.812,35.031,36.733c11.266,4.757,23.654,7.18,36.223,7.18c2.053,0,4.106-0.06,6.159-0.2    c-0.257,1.195,0.653,2.323,1.876,2.323h55.594c8.085,0,15.042,6.209,15.428,14.284c0.413,8.627-6.457,15.76-15.004,15.76H71.569    c-0.631,4.366-0.851,8.783-0.611,13.209c1.723,32.412,26.253,58.42,57.527,62.833v40.362c0,8.296,6.726,15.022,15.022,15.022    s15.022-6.726,15.022-15.022v-40.359c14.068-1.978,27.112-8.353,37.441-18.452c4.081-3.996,7.594-8.428,10.489-13.195    c2.095-3.45-0.336-7.865-4.372-7.865h-51.132c-8.527,0-15.402-7.107-15.006-15.733c0.372-8.086,7.335-14.311,15.428-14.311h59.107    c3.081,0,5.508-2.695,5.113-5.75c-0.273-2.117-0.647-4.221-1.122-6.307l-6.139-26.929c2.634,0.21,5.258,0.32,7.881,0.32    c12.628,0,25.046-2.504,36.243-7.441c18.237-8.022,30.695-21.461,34.19-36.864C290.146,288.66,285.139,271.335,272.941,256.493z" fill="#FFFFFF"/>
	</g>
</g>
<g>
	<g>
		<path d="M411.036,56.663l18.512-34.472c3.925-7.31,1.182-16.417-6.127-20.342c-7.311-3.926-16.417-1.183-20.342,6.127    l-18.38,34.23c-5.4-1.472-11.073-2.274-16.934-2.274c-5.892,0-11.594,0.81-17.02,2.298L332.352,7.978    c-3.925-7.309-13.033-10.053-20.342-6.127c-7.309,3.925-10.053,13.032-6.127,20.342l18.545,34.533    c-12.955,11.794-21.1,28.786-21.1,47.643c0,35.531,28.906,64.438,64.437,64.438s64.437-28.906,64.437-64.438    C432.202,85.478,424.03,68.461,411.036,56.663z" fill="#FFFFFF"/>
	</g>
</g>
<g>
	<g>
		<path d="M497.2,117.363c-9.619-11.691-22.77-20.74-37.785-26.15c-4.105-1.537-7.713-3.4-9.979-0.462    c-1.748,2.266-1.516,8.515-1.516,8.515c-0.06,4.163-0.208,8.608-0.452,13.35c-1.412,27.69-18.066,49.802-39.037,62.461    c-9.544,5.768-19.979,9.574-30.284,11.056c-3.225,0.471-6.439,0.711-9.614,0.711c-3.185,0-6.379-0.17-9.574-0.511    c-11.397-1.222-22.723-4.657-32.898-10.495c-18.877-10.836-33.829-29.924-38.015-58.535c-1.113-7.599-2.042-14.645-2.798-21.174    c-0.42-3.626-4.132-5.856-7.555-4.586c-14.676,5.446-27.701,14.346-37.498,25.758c-12.959,15.102-18.397,32.597-14.902,48    c3.505,15.422,16.274,28.812,35.031,36.733c11.266,4.757,23.654,7.18,36.223,7.18c2.053,0,4.106-0.06,6.159-0.2    c-0.257,1.196,0.653,2.323,1.876,2.323h55.594c8.085,0,15.042,6.209,15.428,14.285c0.413,8.627-6.457,15.759-15.004,15.759    h-64.774c-0.631,4.366-0.851,8.783-0.611,13.209c1.722,32.412,26.253,58.42,57.527,62.833v40.362    c0,8.296,6.726,15.022,15.022,15.022s15.022-6.726,15.022-15.022v-40.359c14.068-1.978,27.112-8.353,37.441-18.452    c4.081-3.996,7.594-8.428,10.489-13.195c2.095-3.45-0.336-7.865-4.372-7.865h-51.132c-8.527,0-15.402-7.106-15.006-15.733    c0.373-8.086,7.335-14.311,15.428-14.311h59.107c3.081,0,5.508-2.694,5.113-5.75c-0.273-2.117-0.647-4.222-1.122-6.307    l-6.139-26.929c2.634,0.21,5.258,0.32,7.881,0.32c12.628,0,25.046-2.504,36.243-7.441c18.237-8.022,30.695-21.461,34.19-36.864    C514.405,149.531,509.398,132.204,497.2,117.363z" fill="#FFFFFF"/>
	</g>
</g>
<g>
</g>
<g>
</g>
<g>
</g>
<g>
</g>
<g>
</g>
<g>
</g>
<g>
</g>
<g>
</g>
<g>
</g>
<g>
</g>
<g>
</g>
<g>
</g>
<g>
</g>
<g>
</g>
<g>
</g>
</svg>
