<?xml version="1.0" encoding="iso-8859-1"?>
<!-- Generator: Adobe Illustrator 19.0.0, SVG Export Plug-In . SVG Version: 6.00 Build 0)  -->
<svg version="1.1" id="Capa_1" xmlns="http://www.w3.org/2000/svg" xmlns:xlink="http://www.w3.org/1999/xlink" x="0px" y="0px"
	 viewBox="0 0 512.002 512.002" style="enable-background:new 0 0 512.002 512.002;" xml:space="preserve">
<path style="fill:#B28964;" d="M158.64,443.282v53.703c0,8.29-6.708,15.008-15.008,15.018h-0.01c-8.29,0-15.018-6.728-15.018-15.018
	v-53.703c0-8.29,6.728-15.018,15.018-15.018h0.01C151.932,428.274,158.64,434.991,158.64,443.282z"/>
<path style="fill:#9F7953;" d="M158.64,443.282v53.703c0,8.29-6.708,15.008-15.008,15.018v-83.738
	C151.932,428.274,158.64,434.991,158.64,443.282z"/>
<path style="fill:#FFCD00;" d="M216.227,391.45v0.3c-0.2,8.88-2.112,17.48-5.587,25.39c-3.404,7.799-8.32,14.937-14.567,21.045
	c-12.605,12.324-29.254,19.112-46.875,19.112h-11.153c-35.642,0-65.056-27.883-66.948-63.484c-0.23-4.425-0.03-8.84,0.611-13.205
	c0.31-2.183,0.741-4.355,1.271-6.508l5.116-23.527l5.246-24.138c1.752-8.099,9.451-11.824,17.861-11.483l42.419,0.04l43.04,0.05
	c6.718-0.38,14.767,2.353,16.609,10.432l11.303,49.578c0.901,3.955,1.442,7.999,1.602,12.054
	C216.247,388.558,216.257,390,216.227,391.45z"/>
<path style="fill:#FFA81F;" d="M216.227,391.45v0.3c-0.2,8.88-2.112,17.48-5.587,25.39c-3.404,7.799-8.32,14.937-14.567,21.045
	c-12.605,12.324-29.254,19.112-46.875,19.112h-5.577V314.991l43.04,0.05c6.718-0.38,14.767,2.353,16.609,10.432l11.303,49.578
	c0.901,3.955,1.442,7.999,1.602,12.054C216.247,388.558,216.257,390,216.227,391.45z"/>
<path style="fill:#B28964;" d="M151.481,365.59c0,8.3-6.718,15.018-15.018,15.018H71.708c0.31-2.183,0.741-4.355,1.271-6.508
	l5.116-23.527h58.368C144.763,350.573,151.481,357.3,151.481,365.59z"/>
<path style="fill:#9F7953;" d="M216.227,391.45v0.3c-0.2,8.88-2.112,17.48-5.587,25.39h-59.569c-8.29,0-15.018-6.728-15.018-15.018
	c0-8.3,6.728-15.018,15.018-15.018h65.106C216.247,388.558,216.257,390,216.227,391.45z"/>
<path style="fill:#B0DBFF;" d="M149.199,308.905c-11.373,17.981-31.517,31.777-54.984,37.103
	c-7.188,1.632-14.517,2.443-21.785,2.443c-12.565,0-24.949-2.413-36.212-7.168c-8.9-3.764-16.459-8.75-22.296-14.607
	c-6.488-6.478-10.883-14.016-12.725-22.116c-3.494-15.398,1.942-32.888,14.897-47.986c12.445-14.507,30.105-24.939,49.738-29.394
	c7.399-1.682,14.917-2.483,22.426-2.383c4.625,0.06,8.96,2.273,11.854,5.877l22.777,28.473l25.279,31.597
	C152.342,295.959,152.773,303.257,149.199,308.905z"/>
<path style="fill:#83C9FF;" d="M286.729,304.159c-1.922,8.47-6.558,16.349-13.376,23.037c-5.566,5.496-12.605,10.202-20.804,13.816
	c-11.193,4.926-23.608,7.439-36.232,7.439c-7.098,0-14.277-0.801-21.345-2.403c-27.272-6.187-51.24-24.699-61.061-47.155
	c-3.324-7.599,0.821-12.274,7.739-19.773l18.902-20.424l25.54-27.602c3.644-3.935,8.74-6.167,14.096-6.287
	c8.039-0.18,16.029,0.631,23.858,2.403c19.643,4.455,37.033,14.907,48.967,29.424C285.217,271.47,290.223,288.79,286.729,304.159z"
	/>
<path style="fill:#B28964;" d="M119.723,215.431c-5.353,0-10.533-2.868-13.243-7.915l-24.72-46.032
	c-3.924-7.307-1.181-16.412,6.125-20.336c7.307-3.926,16.412-1.182,20.336,6.125l24.72,46.032
	c3.924,7.307,1.181,16.412-6.125,20.336C124.555,214.855,122.121,215.431,119.723,215.431z"/>
<path style="fill:#9F7953;" d="M167.427,215.431c-2.399,0-4.831-0.576-7.091-1.79c-7.307-3.924-10.05-13.028-6.125-20.336
	l24.72-46.032c3.924-7.308,13.028-10.051,20.336-6.125c7.307,3.924,10.05,13.028,6.125,20.336l-24.72,46.032
	C177.961,212.562,172.78,215.431,167.427,215.431z"/>
<path style="fill:#FF7A53;" d="M208.047,243.639c0,35.521-28.904,64.415-64.425,64.415s-64.415-28.894-64.415-64.415
	s28.894-64.415,64.415-64.415S208.047,208.117,208.047,243.639z"/>
<path style="fill:#FF4F19;" d="M208.047,243.639c0,35.521-28.904,64.415-64.425,64.415v-128.83
	C179.143,179.224,208.047,208.117,208.047,243.639z"/>
<path style="fill:#B28964;" d="M382.664,303.923v53.703c0,8.29-6.708,15.008-15.008,15.018h-0.01
	c-8.29,0-15.018-6.728-15.018-15.018v-53.703c0-8.29,6.728-15.017,15.018-15.017h0.01
	C375.956,288.916,382.664,295.633,382.664,303.923z"/>
<path style="fill:#9F7953;" d="M382.664,303.923v53.703c0,8.29-6.708,15.008-15.008,15.018v-83.738
	C375.956,288.916,382.664,295.633,382.664,303.923z"/>
<path style="fill:#FFCD00;" d="M440.251,252.093v0.3c-0.2,8.88-2.112,17.48-5.586,25.39c-3.404,7.799-8.32,14.937-14.567,21.045
	c-12.605,12.324-29.254,19.112-46.875,19.112H362.07c-35.642,0-65.056-27.883-66.948-63.484c-0.23-4.425-0.03-8.84,0.611-13.205
	c0.31-2.183,0.741-4.355,1.271-6.508l5.116-23.527l5.246-24.138c1.752-8.099,9.451-11.824,17.861-11.483l42.419,0.04l43.04,0.05
	c6.718-0.38,14.767,2.353,16.609,10.432l11.303,49.578c0.901,3.955,1.442,7.999,1.602,12.054
	C440.271,249.199,440.281,250.641,440.251,252.093z"/>
<path style="fill:#FFA81F;" d="M440.251,252.093v0.3c-0.2,8.88-2.112,17.48-5.586,25.39c-3.404,7.799-8.32,14.937-14.567,21.045
	c-12.605,12.324-29.254,19.112-46.875,19.112h-5.577V175.634l43.04,0.05c6.718-0.38,14.767,2.353,16.609,10.432l11.303,49.578
	c0.901,3.955,1.442,7.999,1.602,12.054C440.271,249.199,440.281,250.641,440.251,252.093z"/>
<path style="fill:#B28964;" d="M375.505,226.233c0,8.3-6.718,15.018-15.017,15.018h-64.755c0.31-2.183,0.741-4.355,1.271-6.508
	l5.116-23.527h58.368C368.788,211.215,375.505,217.943,375.505,226.233z"/>
<path style="fill:#9F7953;" d="M440.251,252.093v0.3c-0.2,8.88-2.112,17.48-5.586,25.39h-59.569c-8.29,0-15.018-6.728-15.018-15.018
	c0-8.3,6.728-15.018,15.018-15.018h65.106C440.271,249.199,440.281,250.641,440.251,252.093z"/>
<path style="fill:#B0DBFF;" d="M373.223,169.546c-11.373,17.981-31.517,31.777-54.984,37.103
	c-7.188,1.632-14.517,2.443-21.785,2.443c-12.565,0-24.949-2.413-36.212-7.168c-8.9-3.764-16.459-8.75-22.296-14.607
	c-6.488-6.478-10.883-14.016-12.725-22.116c-3.494-15.398,1.942-32.888,14.897-47.986c12.445-14.507,30.105-24.939,49.738-29.394
	c7.399-1.682,14.917-2.483,22.426-2.383c4.625,0.06,8.96,2.273,11.854,5.877l22.777,28.473l25.279,31.597
	C376.366,156.601,376.797,163.9,373.223,169.546z"/>
<path style="fill:#83C9FF;" d="M510.753,164.801c-1.922,8.47-6.558,16.349-13.376,23.037c-5.566,5.496-12.605,10.202-20.804,13.816
	c-11.193,4.926-23.608,7.439-36.232,7.439c-7.098,0-14.277-0.801-21.345-2.403c-27.272-6.187-51.24-24.699-61.061-47.155
	c-3.324-7.599,0.821-12.274,7.739-19.773l18.902-20.424l25.54-27.602c3.644-3.935,8.74-6.167,14.096-6.287
	c8.039-0.18,16.029,0.631,23.858,2.403c19.643,4.455,37.033,14.907,48.967,29.424C509.241,132.113,514.247,149.433,510.753,164.801z
	"/>
<path style="fill:#B28964;" d="M343.748,76.073c-5.353,0-10.533-2.868-13.243-7.915l-24.72-46.032
	c-3.924-7.307-1.181-16.412,6.125-20.336c7.307-3.926,16.412-1.182,20.336,6.125l24.72,46.032
	c3.924,7.307,1.181,16.412-6.125,20.336C348.58,75.498,346.146,76.073,343.748,76.073z"/>
<path style="fill:#9F7953;" d="M391.452,76.073c-2.399,0-4.831-0.576-7.091-1.79c-7.307-3.924-10.05-13.028-6.125-20.336
	l24.72-46.032c3.924-7.308,13.028-10.051,20.336-6.125c7.307,3.924,10.05,13.028,6.125,20.336l-24.72,46.032
	C401.986,73.204,396.805,76.073,391.452,76.073z"/>
<path style="fill:#FF7A53;" d="M432.071,104.28c0,35.521-28.904,64.415-64.425,64.415s-64.415-28.894-64.415-64.415
	s28.894-64.415,64.415-64.415C403.168,39.865,432.071,68.759,432.071,104.28z"/>
<path style="fill:#FF4F19;" d="M432.071,104.28c0,35.521-28.904,64.415-64.425,64.415V39.865
	C403.168,39.865,432.071,68.759,432.071,104.28z"/>
<g>
</g>
<g>
</g>
<g>
</g>
<g>
</g>
<g>
</g>
<g>
</g>
<g>
</g>
<g>
</g>
<g>
</g>
<g>
</g>
<g>
</g>
<g>
</g>
<g>
</g>
<g>
</g>
<g>
</g>
</svg>
