<?xml version="1.0" encoding="iso-8859-1"?>
<!-- Generator: Adobe Illustrator 19.0.0, SVG Export Plug-In . SVG Version: 6.00 Build 0)  -->
<svg xmlns="http://www.w3.org/2000/svg" xmlns:xlink="http://www.w3.org/1999/xlink" version="1.1" id="Capa_1" x="0px" y="0px" viewBox="0 0 512.001 512.001" style="enable-background:new 0 0 512.001 512.001;" xml:space="preserve" width="512px" height="512px">
<g>
	<g>
		<path d="M273.451,256.678c-11.933-14.512-29.322-24.958-48.959-29.414c-6.186-1.403-12.473-2.178-18.802-2.363    c-3.434-11.239-9.86-21.184-18.353-28.894l18.503-34.456c3.923-7.306,1.181-16.409-6.124-20.332    c-7.307-3.924-16.409-1.182-20.332,6.124l-18.373,34.213c-5.397-1.472-11.068-2.273-16.926-2.273    c-5.889,0-11.588,0.81-17.012,2.297l-18.386-34.237c-3.923-7.305-13.027-10.048-20.332-6.124    c-7.305,3.923-10.048,13.026-6.124,20.332l18.536,34.516c-8.483,7.724-14.895,17.68-18.313,28.927    c-5.415,0.29-10.814,1.025-16.151,2.236c-19.627,4.453-37.289,14.892-49.732,29.391C3.62,271.716-1.806,289.201,1.686,304.594    c3.498,15.417,16.259,28.8,35.008,36.719c11.259,4.755,23.648,7.17,36.21,7.17c2.051,0,4.107-0.072,6.162-0.201l-5.618,25.845    c-1.6,6.445-2.232,13.076-1.88,19.712c1.725,32.393,26.239,58.39,57.5,62.802v40.344c0,8.292,6.723,15.015,15.015,15.015    s15.015-6.723,15.015-15.015v-40.341c14.064-1.977,27.101-8.348,37.422-18.442c12.6-12.323,19.756-28.812,20.149-46.424    l0.007-0.308c0.123-5.507-0.435-11.024-1.66-16.394l-6.138-26.927c2.633,0.217,5.264,0.327,7.887,0.327    c12.622,0,25.026-2.508,36.221-7.435c18.227-8.024,30.684-21.453,34.176-36.847C290.649,288.83,285.651,271.512,273.451,256.678z     M144.086,209.312c5.802,0,11.268,1.45,16.067,3.998c0.214,0.129,0.418,0.268,0.642,0.387c0.158,0.084,0.318,0.159,0.477,0.237    c10.267,5.953,17.192,17.057,17.192,29.754c0,18.956-15.421,34.378-34.377,34.378s-34.378-15.422-34.378-34.378    C109.709,224.733,125.13,209.312,144.086,209.312z M88.039,316.756c-13.352,3.03-27.807,1.898-39.661-3.108    c-9.443-3.988-16.113-10.004-17.405-15.7c-1.327-5.852,1.887-14.194,8.39-21.771c8.154-9.502,20.396-16.669,33.589-19.663    c2.58-0.586,5.178-1.013,7.785-1.286c3.766,20.72,17.463,38.013,35.977,46.744C108.203,309.841,97.09,314.703,88.039,316.756z     M151.532,417.157h23.417c-6.648,6.262-15.57,10.124-25.295,10.124h-11.143c-19.675,0-35.907-15.391-36.953-35.038    c-0.197-3.712,0.164-7.421,1.073-11.024l0.127-0.585h34.168c8.292,0,15.015-6.723,15.015-15.015s-6.723-15.015-15.015-15.015    h-27.636l2.185-10.043c13.381-5.776,24.942-14.424,33.374-24.912c8.115,9.738,18.954,17.99,31.24,23.759l9.651,42.341    c0.403,1.77,0.66,3.569,0.799,5.377h-35.007c-8.292,0-15.015,6.723-15.015,15.015S143.24,417.157,151.532,417.157z     M257.882,297.549c-2.773,12.22-27.434,25.681-55.818,19.244c-12.239-2.778-22.231-8.675-29.424-15.395    c17.97-8.928,31.193-25.998,34.83-46.357c3.492,0.239,6.96,0.734,10.377,1.508c13.175,2.99,24.687,9.811,32.414,19.207    C256.336,283.141,259.256,291.492,257.882,297.549z" fill="#FFFFFF"/>
	</g>
</g>
<g>
	<g>
		<path d="M496.554,117.252c-11.936-14.512-29.325-24.959-48.961-29.415c-6.186-1.403-12.475-2.18-18.804-2.365    c-3.434-11.238-9.86-21.183-18.353-28.893l18.504-34.456c3.923-7.306,1.181-16.409-6.124-20.332    c-7.306-3.925-16.409-1.182-20.332,6.124L384.11,42.127c-5.397-1.472-11.068-2.273-16.926-2.273    c-5.889,0-11.588,0.81-17.012,2.297L331.788,7.916c-3.923-7.305-13.027-10.049-20.332-6.124    c-7.305,3.923-10.048,13.026-6.124,20.332l18.536,34.517c-8.483,7.724-14.895,17.679-18.313,28.926    c-5.415,0.29-10.815,1.026-16.152,2.237c-19.627,4.453-37.289,14.892-49.732,29.391c-12.953,15.095-18.379,32.58-14.886,47.973    c3.498,15.417,16.259,28.8,35.008,36.72c11.258,4.754,23.649,7.17,36.21,7.17c2.051,0,4.106-0.072,6.162-0.201l-5.619,25.845    c-1.601,6.447-2.232,13.078-1.879,19.711c1.724,32.393,26.238,58.39,57.5,62.802v40.344c0,8.292,6.723,15.015,15.015,15.015    s15.015-6.723,15.015-15.015v-40.341c14.064-1.977,27.101-8.348,37.422-18.442c12.6-12.323,19.756-28.811,20.149-46.424    l0.007-0.306c0.124-5.505-0.435-11.022-1.66-16.396l-6.138-26.927c2.633,0.217,5.264,0.327,7.887,0.327    c12.622,0,25.026-2.507,36.221-7.435c18.227-8.023,30.684-21.453,34.176-36.846C513.752,149.404,508.755,132.086,496.554,117.252z     M367.186,69.884c5.801,0,11.268,1.45,16.066,3.998c0.214,0.129,0.418,0.268,0.642,0.387c0.157,0.084,0.317,0.159,0.477,0.237    c10.267,5.953,17.193,17.057,17.193,29.755c0,18.956-15.421,34.377-34.377,34.377c-18.956,0-34.377-15.421-34.377-34.377    C332.809,85.305,348.23,69.884,367.186,69.884z M311.138,177.33c-28.652,6.506-54.369-6.928-57.066-18.809    c-1.327-5.852,1.887-14.194,8.39-21.771c8.154-9.502,20.396-16.669,33.588-19.663c2.58-0.586,5.178-1.012,7.786-1.285    c3.766,20.719,17.464,38.012,35.977,46.743C331.302,170.415,320.188,175.276,311.138,177.33z M374.631,277.729h23.417    c-6.648,6.262-15.57,10.124-25.295,10.124h-11.143c-19.675,0.001-35.906-15.389-36.952-35.037    c-0.198-3.711,0.163-7.42,1.073-11.025l0.127-0.584h34.168c8.292,0,15.015-6.723,15.015-15.015s-6.723-15.015-15.015-15.015    h-27.636l2.185-10.042c13.381-5.776,24.942-14.424,33.374-24.913c8.115,9.738,18.954,17.99,31.24,23.759l9.651,42.339    c0.403,1.772,0.66,3.57,0.799,5.378h-35.008c-8.292,0-15.015,6.723-15.015,15.015S366.339,277.729,374.631,277.729z     M480.981,158.122c-1.326,5.844-7.836,11.977-16.99,16.006c-11.478,5.051-25.63,6.229-38.829,3.236    c-12.238-2.777-22.231-8.675-29.424-15.395c17.97-8.928,31.193-25.998,34.83-46.357c3.492,0.239,6.959,0.734,10.377,1.509    c13.176,2.99,24.687,9.811,32.415,19.206C479.436,143.713,482.356,152.066,480.981,158.122z" fill="#FFFFFF"/>
	</g>
</g>
<g>
</g>
<g>
</g>
<g>
</g>
<g>
</g>
<g>
</g>
<g>
</g>
<g>
</g>
<g>
</g>
<g>
</g>
<g>
</g>
<g>
</g>
<g>
</g>
<g>
</g>
<g>
</g>
<g>
</g>
</svg>
