<?xml version="1.0" encoding="iso-8859-1"?>
<!-- Generator: Adobe Illustrator 19.0.0, SVG Export Plug-In . SVG Version: 6.00 Build 0)  -->
<svg version="1.1" id="Capa_1" xmlns="http://www.w3.org/2000/svg" xmlns:xlink="http://www.w3.org/1999/xlink" x="0px" y="0px"
	 viewBox="0 0 512 512" style="enable-background:new 0 0 512 512;" xml:space="preserve">
<path style="fill:#EEBF00;" d="M222.097,70.977v80.178c0,11.001-9.351,20.002-20.352,20.002h-1.61
	c-11.001,0-20.002-9.001-20.002-20.002v15.001c0,11.001-9.001,20.002-20.002,20.002h-1.6c-11.001,0-20.442-9.001-20.442-20.002
	V70.977H222.097z"/>
<path style="fill:#FFD422;" d="M181.154,134.983c2.642,7.962,10.163,13.751,18.981,13.751h1.61c11.001,0,20.352-9.001,20.352-20.002
	V70.977h-84.008v72.757c0,11.001,9.441,20.002,20.442,20.002h1.6c11.001,0,20.002-9.001,20.002-20.002v-8.751
	c0,0,0.002-0.563,0.502-0.604C180.635,134.379,180.984,134.295,181.154,134.983z"/>
<path style="fill:#EE8700;" d="M480.452,61.116v3c0,6.601-5.401,12.001-12.001,12.001H206.525c-6.601,0-12.001-5.401-12.001-12.001
	v-3c0-6.601,5.401-12.001,12.001-12.001h261.926C475.051,49.115,480.452,54.515,480.452,61.116z"/>
<path style="fill:#CC7400;" d="M278.102,49.115v27.003h-71.577c-6.601,0-12.001-5.401-12.001-12.001v-3
	c0-6.601,5.401-12.001,12.001-12.001H278.102z"/>
<path style="fill:#78B9EB;" d="M232.048,224.762v81.908c0,3.19-2.62,5.811-5.811,5.811H99.885c-3.19,0-5.811-2.62-5.811-5.811
	v-81.908c0-3.19,2.62-5.811,5.811-5.811h126.352C229.427,218.951,232.048,221.572,232.048,224.762z"/>
<path style="fill:#96C8EF;" d="M232.048,224.762v81.908c0,3.19-2.439,5.811-5.41,5.811h-97.151c-2.97,0-5.41-2.62-5.41-5.811
	v-81.908c0-3.19,2.439-5.811,5.41-5.811h97.151C229.608,218.951,232.048,221.572,232.048,224.762z"/>
<path style="fill:#B3D8F4;" d="M258.76,229.522v0.01c0,7.531-3.08,14.381-8.051,19.342c-4.97,4.97-11.811,8.051-19.352,8.051H94.764
	c-15.071,0-27.393-12.321-27.403-27.393v-0.01c0-7.531,3.08-14.381,8.051-19.342c4.97-4.97,11.811-8.051,19.352-8.051h136.593
	C246.429,202.13,258.76,214.461,258.76,229.522z"/>
<path style="fill:#C2DFF6;" d="M294.574,391.338v36.154c0,42.354-34.653,77.008-77.008,77.008H108.556
	c-42.354,0-77.008-34.653-77.008-77.008v-36.154c0-17.802,4.17-34.683,11.581-49.705c18.482-37.504,57.146-63.456,101.58-63.456
	h36.704c44.434,0,83.098,25.953,101.58,63.456C290.403,356.655,294.574,373.536,294.574,391.338z"/>
<path style="fill:#FFB655;" d="M221.36,86.24V39.797c0-7.629,6.242-13.87,13.87-13.87l0,0c7.629,0,13.87,6.242,13.87,13.87V86.24
	c0,7.629-6.242,13.87-13.87,13.87l0,0C227.601,100.11,221.36,93.868,221.36,86.24z"/>
<path style="fill:#FFA733;" d="M222.097,29.043v67.957c0,7.631-6.241,13.871-13.871,13.871h-1.09c-6.261,0-11.591-4.2-13.291-9.921
	c-0.38-1.25-0.58-2.58-0.58-3.95V29.043c0-1.37,0.2-2.69,0.58-3.94c1.7-5.731,7.031-9.931,13.291-9.931h1.09
	C215.856,15.171,222.097,21.412,222.097,29.043z"/>
<path style="fill:#FFB655;" d="M138.589,39.794v46.445c0,1.2-0.16,2.37-0.45,3.49c-0.01,0.06-0.03,0.12-0.05,0.18
	c-1.61,5.861-7.011,10.201-13.371,10.201h-0.44c-7.631,0-13.871-6.241-13.871-13.871V39.794c0-7.621,6.241-13.871,13.871-13.871
	h0.44c6.361,0,11.761,4.35,13.371,10.211c0.02,0.06,0.04,0.12,0.05,0.18C138.428,37.424,138.589,38.594,138.589,39.794z"/>
<path style="fill:#FFA733;" d="M166.341,29.043v67.957c0,1.57-0.26,3.08-0.75,4.49c-1.87,5.441-7.061,9.381-13.121,9.381h-0.46
	c-7.631,0-13.871-6.241-13.871-13.871V29.043c0-7.631,6.241-13.871,13.871-13.871h0.46c6.061,0,11.251,3.94,13.121,9.391
	C166.081,25.963,166.341,27.473,166.341,29.043z"/>
<path style="fill:#FFB655;" d="M193.844,21.372v83.288c0,7.631-6.241,13.871-13.871,13.871h-0.51
	c-7.631,0-13.871-6.241-13.871-13.871V21.372c0-7.631,6.241-13.871,13.871-13.871h0.51C187.603,7.501,193.844,13.741,193.844,21.372
	z"/>
<path style="fill:#EEBF00;" d="M294.574,391.338v36.154c0,42.354-34.653,77.008-77.008,77.008H108.556
	c-42.354,0-77.008-34.653-77.008-77.008v-36.154c0-17.802,4.17-34.683,11.581-49.705h239.863
	C290.403,356.655,294.574,373.536,294.574,391.338z"/>
<path style="fill:#D1E7F8;" d="M294.574,391.338v36.154c0,42.354-34.653,77.008-77.008,77.008h-81.728
	c-42.354,0-77.008-34.653-77.008-77.008v-36.154c0-17.802,4.17-34.683,11.581-49.705c18.482-37.504,57.146-63.456,101.58-63.456
	h9.421c44.434,0,83.098,25.953,101.58,63.456C290.403,356.655,294.574,373.536,294.574,391.338z"/>
<path style="fill:#FFD422;" d="M294.574,391.338v36.154c0,42.354-34.653,77.008-77.008,77.008h-81.728
	c-42.354,0-77.008-34.653-77.008-77.008v-36.154c0-17.802,4.17-34.683,11.581-49.705h212.581
	C290.403,356.655,294.574,373.536,294.574,391.338z"/>
<path style="fill:#FF9811;" d="M207.557,402.03l-15.776,8.759c-2.391,1.328-5.299,1.328-7.689,0l-21.032-11.678v-22.964
	c0-2.877,1.56-5.528,4.075-6.924l15.843-8.797c3.084-1.713,6.835-1.713,9.919,0l14.66,8.14c3.244,1.801,5.258,5.221,5.258,8.932
	v15.599C212.815,396.81,210.803,400.229,207.557,402.03z"/>
<path style="fill:#EE8700;" d="M182.68,443.472l-14.66,8.14c-3.084,1.713-6.835,1.713-9.919,0l-14.66-8.14
	c-3.244-1.801-5.258-5.221-5.258-8.932v-16.952c0-2.877,1.56-5.528,4.075-6.924l20.802-11.55l20.802,11.55
	c2.515,1.396,4.075,4.047,4.075,6.924v16.952C187.936,438.251,185.924,441.67,182.68,443.472z"/>
<path style="fill:#FFA733;" d="M163.061,399.112l-21.032,11.678c-2.391,1.328-5.299,1.328-7.689,0l-15.776-8.759
	c-3.244-1.801-5.258-5.221-5.258-8.932V377.5c0-3.711,2.012-7.131,5.258-8.932l14.66-8.14c3.084-1.713,6.835-1.713,9.919,0
	l15.843,8.797c2.515,1.396,4.075,4.047,4.075,6.924L163.061,399.112L163.061,399.112z"/>
<path style="fill:#D1E7F8;" d="M258.76,229.532c0,7.531-3.08,14.381-8.051,19.342c-4.97,4.97-11.811,8.051-19.352,8.051H94.764
	c-15.071,0-27.393-12.321-27.403-27.393H258.76z"/>
<path d="M293.624,441.693c-3.98-1.16-8.141,1.13-9.301,5.1c-8.611,29.563-36.064,50.205-66.757,50.205H108.556
	c-38.324,0-69.507-31.183-69.507-69.507v-36.154c0-19.382,5.361-38.374,15.502-54.915c2.17-3.54,1.06-8.151-2.47-10.321
	c-3.53-2.17-8.151-1.06-10.311,2.47c-11.591,18.912-17.722,40.614-17.722,62.766v36.154c0,46.595,37.914,84.508,84.508,84.508
	h109.011c37.324,0,70.697-25.082,81.158-61.006C299.884,447.014,297.604,442.853,293.624,441.693z"/>
<path d="M239.548,285.638v-22.182c15.301-3.7,26.713-17.502,26.713-33.923c0-19.252-15.662-34.903-34.903-34.903h-40.214
	c-4.14,0-7.501,3.36-7.501,7.501c0,4.14,3.36,7.501,7.501,7.501h40.214c10.971,0,19.902,8.921,19.902,19.902
	c0,8.051-4.81,15.001-11.711,18.122c-2.5,1.14-5.271,1.77-8.191,1.77h-6.811H101.575h-6.811c-2.92,0-5.691-0.63-8.191-1.77
	c-6.901-3.12-11.711-10.071-11.711-18.122c0-10.981,8.931-19.902,19.902-19.902h66.376c4.14,0,7.501-3.36,7.501-7.501
	c0-4.14-3.36-7.501-7.501-7.501H94.764c-19.242,0-34.903,15.652-34.903,34.903c0,16.422,11.411,30.223,26.713,33.923v22.242
	c-8.881,4.91-17.192,10.981-24.732,18.122c-3.01,2.85-3.13,7.601-0.28,10.601c2.84,3.01,7.591,3.14,10.601,0.29
	c4.51-4.27,9.331-8.111,14.411-11.471c4.78-3.19,9.801-5.961,15.001-8.301c13.441-6.071,28.093-9.261,43.134-9.261h36.704
	c15.361,0,29.963,3.29,43.134,9.211c5.241,2.35,10.261,5.121,15.001,8.271c28.623,18.912,47.525,51.375,47.525,88.179v27.853
	c0,4.14,3.36,7.501,7.501,7.501c4.14,0,7.501-3.36,7.501-7.501v-27.853C302.074,345.864,276.792,306.19,239.548,285.638z
	 M224.547,278.647c-13.401-5.15-27.943-7.971-43.134-7.971h-36.704c-14.921,0-29.513,2.75-43.134,8.011v-14.261h122.972V278.647z"/>
<path d="M134.542,447.111l24.877,13.813c1.132,0.628,2.386,0.943,3.641,0.943s2.509-0.314,3.641-0.943l24.877-13.813
	c2.382-1.323,3.859-3.833,3.859-6.558v-23.212l21.019-11.671c2.381-1.323,3.859-3.833,3.859-6.558v-27.627
	c0-2.725-1.478-5.234-3.859-6.558l-24.879-13.813c-2.264-1.257-5.018-1.257-7.282,0l-21.236,11.791l-21.236-11.791
	c-2.264-1.257-5.018-1.257-7.282,0l-24.876,13.813c-2.382,1.323-3.859,3.833-3.859,6.558v27.627c0,2.724,1.478,5.234,3.859,6.558
	l21.016,11.669v23.214C130.682,443.278,132.16,445.788,134.542,447.111z M170.562,375.9l17.377-9.648l17.377,9.648v18.797
	l-17.377,9.648l-17.377-9.648V375.9z M180.436,417.342v18.797l-17.377,9.648l-17.377-9.648v-18.797l17.377-9.648L180.436,417.342z
	 M120.809,394.697V375.9l17.376-9.648l17.377,9.648v18.797l-17.377,9.648L120.809,394.697z"/>
<path d="M468.451,41.614H327.937c-4.14,0-7.501,3.36-7.501,7.501s3.36,7.501,7.501,7.501h140.514c2.44,0,4.5,2.06,4.5,4.5v3
	c0,2.44-2.06,4.5-4.5,4.5H256.6V56.616h41.334c4.14,0,7.501-3.36,7.501-7.501s-3.36-7.501-7.501-7.501H256.6v-1.82
	c0-11.781-9.591-21.372-21.372-21.372c-2.96,0-5.771,0.61-8.341,1.7c-3.39-7.341-10.791-12.451-19.392-12.451
	c-3.49,0-6.771,0.85-9.681,2.34C194.024,4.01,187.353,0,179.753,0c-7.611,0-14.281,4.01-18.072,10.011
	c-2.9-1.49-6.191-2.34-9.671-2.34c-8.601,0-16.012,5.11-19.392,12.451c-2.57-1.09-5.391-1.7-8.341-1.7
	c-11.791,0-21.372,9.591-21.372,21.372v46.445c0,11.781,9.581,21.372,21.372,21.372c2.35,0,4.63-0.39,6.751-1.1v59.646
	c0,15.161,12.331,27.503,27.503,27.503h1.6c12.121,0,22.432-7.881,26.083-18.792c4.09,2.41,8.851,3.79,13.921,3.79h1.61
	c15.161,0,27.503-12.341,27.503-27.503V106.75c1.9,0.56,3.9,0.86,5.981,0.86c11.781,0,21.372-9.591,21.372-21.372v-2.62h211.851
	c10.761,0,19.502-8.751,19.502-19.502v-3C487.953,50.365,479.212,41.614,468.451,41.614z M130.638,86.288
	c-0.03,3.49-2.87,6.321-6.361,6.321c-3.52,0-6.371-2.86-6.371-6.371V39.794c0-3.51,2.85-6.371,6.371-6.371
	c3.49,0,6.331,2.84,6.361,6.321V86.288z M201.125,29.043c0-3.52,2.86-6.371,6.371-6.371c3.51,0,6.371,2.85,6.371,6.371
	c0,26.453-0.021-15.19,0,67.957c0,3.51-2.86,6.371-6.371,6.371c-3.51,0-6.371-2.86-6.371-6.371V29.043z M173.382,21.372
	c0-3.51,2.86-6.371,6.371-6.371c3.51,0,6.371,2.86,6.371,6.371v83.288c0,3.52-2.86,6.371-6.371,6.371
	c-3.51,0-6.371-2.85-6.371-6.371V21.372z M145.639,29.043c0-3.52,2.86-6.371,6.371-6.371c3.51,0,6.371,2.85,6.371,6.371v67.957
	c0,3.51-2.86,6.371-6.371,6.371c-2.75,0-5.101-1.75-5.981-4.2C145.292,97.271,145.772,100.17,145.639,29.043z M214.246,151.155
	c0,6.891-5.611,12.501-12.501,12.501h-1.61c-6.346,0-12.329-4.847-12.51-12.674v-7.665c0-4.142-3.358-7.501-7.501-7.501
	c-4.142,0-7.501,3.358-7.501,7.501c0,0.036,0,0.068,0,0.1c0-0.005,0-0.009,0-0.014c0,0.008,0,0.016,0,0.025c0,0.006,0,0.014,0,0.021
	c0,0.024,0,0.044,0,0.065c0,0.03,0,0.063,0,0.1c0-0.012,0-0.024,0-0.036c0,0.023,0,0.046,0,0.065c0,0.039,0,0.067,0,0.091
	c0,1.51,0.002,0.534,0.009,22.422c0,6.891-5.611,12.501-12.501,12.501h-1.6c-6.901,0-12.501-5.611-12.501-12.501v-48.635
	c1.9,0.55,3.9,0.85,5.981,0.85c3.48,0,6.771-0.86,9.671-2.34c3.79,6.001,10.461,10.001,18.072,10.001
	c7.601,0,14.271-4,18.062-10.001c2.91,1.48,6.191,2.34,9.681,2.34c2.36,0,4.63-0.39,6.751-1.1L214.246,151.155L214.246,151.155z
	 M241.599,41.614v15.001v12.001v15.001v2.62c0,3.51-2.86,6.371-6.371,6.371c-2.76,0-5.111-1.76-5.981-4.22
	c-0.551-1.453-0.38,2.193-0.38-48.645c0.02-3.48,2.87-6.321,6.361-6.321c3.51,0,6.371,2.86,6.371,6.371V41.614z"/>
<g>
</g>
<g>
</g>
<g>
</g>
<g>
</g>
<g>
</g>
<g>
</g>
<g>
</g>
<g>
</g>
<g>
</g>
<g>
</g>
<g>
</g>
<g>
</g>
<g>
</g>
<g>
</g>
<g>
</g>
</svg>
